<?xml version="1.0" encoding="UTF-8" standalone="no"?>
<!-- Uploaded to: SVG Repo, www.svgrepo.com, Generator: SVG Repo Mixer Tools -->

<svg
   fill="#000000"
   width="799.98535"
   height="800"
   viewBox="0 0 23.999561 24"
   version="1.1"
   id="svg4"
   xml:space="preserve"
   xmlns="http://www.w3.org/2000/svg"
   xmlns:svg="http://www.w3.org/2000/svg"><defs
     id="defs8" /><path
     d="m 18.626899,12.050101 a 6.6779661,6.6787111 0 1 1 -6.677965,-6.6787099 6.6172573,6.6179956 0 0 1 3.57089,1.0321644 L 16.376425,5.546859 a 0.60708782,0.60715556 0 0 1 1.036298,0.4316877 v 2.4286218 a 0.60708782,0.60715556 0 0 1 -0.607087,0.607156 h -2.428352 a 0.60708782,0.60715556 0 0 1 -0.42921,-1.0364146 l 0.684187,-0.6842643 a 5.4030817,5.4036845 0 0 0 -2.683327,-0.7079434 5.4637905,5.4644 0 1 0 5.463789,5.4643988 0.60708808,0.60715582 0 0 1 1.214176,0 z"
     id="path2"
     style="stroke-width:0.607121" /><g
     style="fill:#000000"
     id="g74"
     transform="matrix(0.10951403,0,0,0.10951403,-2.1902857e-4,0)"><g
       id="g64">
	<path
   d="M 109.575,0 C 49.156,0 0.002,49.155 0.002,109.576 c 0,60.419 49.154,109.574 109.573,109.574 60.419,0 109.573,-49.155 109.573,-109.574 C 219.148,49.155 169.994,0 109.575,0 Z m 0,204.15 C 57.427,204.15 15.002,161.724 15.002,109.576 15.002,57.427 57.427,15 109.575,15 c 52.148,0 94.573,42.427 94.573,94.576 0,52.149 -42.425,94.574 -94.573,94.574 z"
   id="path60" />
	
</g></g></svg>
